<svg xmlns="http://www.w3.org/2000/svg" viewBox="0 0 200 200">
  <rect width="200" height="200" rx="44" fill="#f2efec"/>
  <defs>
    <linearGradient id="arch" x1="0" y1="0" x2="1" y2="1">
      <stop offset="0" stop-color="#b7b7a9"/>
      <stop offset="1" stop-color="#7e7f6d"/>
    </linearGradient>
    <clipPath id="ribL"><path d="M100 148 L46 134 L57 146 L46 158 L100 172 Z"/></clipPath>
    <clipPath id="ribR"><path d="M100 148 L154 134 L143 146 L154 158 L100 172 Z"/></clipPath>
  </defs>
  <path d="M62 126 L62 66 Q62 42 84 29 L100 15 L116 29 Q138 42 138 66 L138 126 L122 126 L122 68 Q122 51 109 44 L100 36 L91 44 Q78 51 78 68 L78 126 Z" fill="url(#arch)"/>
  <path d="M100 126 C79 116 58 111 42 109 L42 122 C58 124 79 129 100 139 Z" fill="#7b5a6e"/>
  <path d="M100 126 C121 116 142 111 158 109 L158 122 C142 124 121 129 100 139 Z" fill="#7b5a6e"/>
  <path d="M100 139 C81 130 62 126 48 124 L48 129 C64 131 82 135 100 145 Z" fill="#ffffff"/>
  <path d="M100 139 C119 130 138 126 152 124 L152 129 C136 131 118 135 100 145 Z" fill="#ffffff"/>
  <g clip-path="url(#ribL)">
    <path d="M100 148 L46 134 L46 142 L100 156 Z" fill="#3f7d4f"/>
    <path d="M100 156 L46 142 L46 150 L100 164 Z" fill="#ffffff"/>
    <path d="M100 164 L46 150 L46 158 L100 172 Z" fill="#b23a45"/>
  </g>
  <g clip-path="url(#ribR)">
    <path d="M100 148 L154 134 L154 142 L100 156 Z" fill="#3f7d4f"/>
    <path d="M100 156 L154 142 L154 150 L100 164 Z" fill="#ffffff"/>
    <path d="M100 164 L154 150 L154 158 L100 172 Z" fill="#b23a45"/>
  </g>
  <polygon points="100,151 93,149 100,165 107,149" fill="#26251f"/>
  <path d="M100 139 L94 136.5 L100 145 L106 136.5 Z" fill="#ffffff"/>
</svg>
